<svg width="19" height="22" viewBox="0 0 19 22" fill="none" xmlns="http://www.w3.org/2000/svg">
<path id="Vector - 0" fill-rule="evenodd" clip-rule="evenodd" d="M17.9878 9.6875L2.23781 0.697813C1.69424 0.392896 1.01876 0.45587 0.540922 0.856011C0.0630856 1.25615 -0.117534 1.91008 0.0871875 2.49875L2.99344 10.9803C2.99306 10.9834 2.99306 10.9866 2.99344 10.9897C2.99291 10.9928 2.99291 10.996 2.99344 10.9991L0.0871875 19.4994C-0.0753026 19.9583 -0.00494194 20.4676 0.275903 20.8653C0.556748 21.263 1.01314 21.4996 1.5 21.5C1.76031 21.4993 2.01606 21.4315 2.2425 21.3031L17.9841 12.2984C18.4568 12.0336 18.75 11.5344 18.751 10.9925C18.752 10.4506 18.4606 9.95028 17.9888 9.68375L17.9878 9.6875ZM1.5 20V19.9916L4.32562 11.75H9.75C10.1642 11.75 10.5 11.4142 10.5 11C10.5 10.5858 10.1642 10.25 9.75 10.25H4.33313L1.50562 2.01125L1.5 2L17.25 10.9841L1.5 20Z" fill="#9494C7"/>
</svg>
